<?xml version="1.0" standalone="no"?>
<!DOCTYPE svg PUBLIC "-//W3C//DTD SVG 20010904//EN"
 "http://www.w3.org/TR/2001/REC-SVG-20010904/DTD/svg10.dtd">
<svg version="1.0" xmlns="http://www.w3.org/2000/svg"
 width="1362.000000pt" height="1800.000000pt" viewBox="0 0 1362.000000 1800.000000"
 preserveAspectRatio="xMidYMid meet">
<g transform="translate(0.000000,1800.000000) scale(0.100000,-0.100000)"
fill="#000000" stroke="none">
<path d="M3379 11100 c-93 -49 -185 -205 -254 -429 -18 -58 -12 -71 30 -71 35
0 46 15 65 86 36 131 90 242 148 303 33 35 45 41 80 41 36 0 45 -6 85 -50 42
-46 126 -213 148 -295 47 -173 55 -205 103 -440 42 -204 41 -183 8 -219 -44
-46 -53 -69 -46 -118 6 -43 5 -46 -37 -78 -61 -47 -254 -218 -369 -324 -156
-147 -470 -467 -513 -523 -21 -29 -47 -53 -56 -53 -9 0 -25 13 -35 28 -27 37
-149 180 -218 255 -55 59 -71 98 -48 112 6 3 10 30 10 59 0 50 -3 56 -40 90
-36 33 -46 36 -98 36 l-57 0 -71 108 c-252 379 -375 667 -324 763 14 25 62 49
100 49 70 0 242 -63 337 -123 24 -15 53 -27 66 -27 24 0 57 27 57 48 0 10
-229 127 -295 150 -60 22 -196 44 -208 34 -7 -5 -24 -12 -39 -16 -42 -10 -84
-60 -98 -116 -13 -54 -4 -131 26 -235 23 -75 106 -248 160 -332 19 -28 34 -54
34 -57 0 -12 160 -243 184 -265 30 -28 32 -43 11 -61 -21 -18 -19 -83 5 -123
26 -43 84 -71 131 -62 33 6 36 4 100 -77 87 -109 121 -149 197 -226 34 -35 62
-68 62 -74 0 -5 -36 -49 -80 -97 -44 -48 -94 -106 -111 -129 -17 -23 -34 -42
-37 -43 -4 0 -31 -2 -61 -2 -50 -2 -56 -5 -91 -46 l-38 -44 -48 17 c-26 9 -60
16 -76 16 -16 0 -57 6 -91 14 -34 8 -98 22 -142 31 -139 29 -201 46 -360 102
-124 43 -274 144 -276 186 -3 50 4 64 48 104 54 49 108 78 235 128 51 20 103
40 116 45 16 7 22 18 22 39 0 16 -4 32 -9 36 -10 5 -74 -14 -181 -55 -30 -12
-64 -24 -75 -28 -70 -20 -193 -121 -226 -184 -24 -46 -24 -72 0 -123 48 -106
229 -207 499 -278 231 -62 457 -107 530 -107 21 0 36 -8 46 -22 23 -32 20 -49
-14 -82 -16 -15 -50 -60 -76 -100 -26 -39 -73 -109 -104 -156 -31 -47 -59 -92
-63 -100 -4 -8 -21 -37 -37 -65 -30 -49 -102 -192 -126 -250 -35 -84 -44 -116
-55 -186 -31 -192 63 -282 259 -250 89 15 314 117 332 151 15 28 36 25 99 -17
31 -20 74 -48 96 -62 36 -24 133 -73 210 -106 58 -25 111 -43 175 -59 36 -10
90 -25 120 -34 55 -17 55 -17 52 -54 -5 -54 11 -102 78 -238 52 -105 94 -156
154 -185 65 -32 112 -27 169 17 59 47 138 179 172 288 10 30 23 71 30 90 35
97 96 406 110 562 6 60 10 70 36 89 33 23 55 20 92 -15 56 -52 292 -219 332
-235 6 -2 28 -16 50 -30 22 -14 56 -33 75 -42 19 -9 74 -36 122 -59 77 -37
144 -57 256 -77 41 -7 115 20 147 54 63 68 56 210 -17 373 -11 25 -24 52 -29
60 -5 8 -13 24 -18 35 -5 12 -16 27 -25 34 -21 18 -20 43 3 72 51 66 132 221
161 307 11 35 24 71 29 80 21 43 41 94 41 107 0 19 -39 19 -64 0 -11 -8 -30
-15 -42 -15 -38 0 -98 -31 -128 -67 -87 -104 -249 -126 -353 -48 l-36 29 -121
-14 c-67 -7 -155 -16 -196 -19 l-75 -6 -7 -120 c-7 -107 -6 -123 11 -145 32
-45 51 -88 51 -119 0 -22 7 -35 27 -48 15 -10 35 -25 44 -34 9 -10 39 -30 65
-45 27 -16 76 -47 109 -71 32 -24 63 -43 67 -43 9 0 68 -39 78 -51 3 -4 14 -9
26 -13 17 -5 34 8 90 66 38 40 83 91 99 113 34 45 56 65 68 62 8 -2 52 -121
87 -237 26 -86 26 -150 -1 -184 -18 -23 -27 -26 -82 -26 -34 0 -91 9 -127 20
-125 39 -394 186 -541 295 -30 22 -80 58 -112 79 -32 21 -60 43 -64 48 -3 6
-7 35 -8 65 -2 51 -6 58 -45 94 -32 29 -40 43 -34 56 4 10 11 101 16 203 5
102 13 192 17 200 6 12 40 16 162 21 85 3 186 11 224 17 39 6 98 13 132 16 61
6 63 5 94 -28 75 -83 207 -52 232 54 6 24 14 27 104 44 91 16 128 25 258 62
116 33 182 57 258 95 126 62 176 105 209 178 29 63 12 119 -57 186 -75 74
-306 185 -387 185 -38 0 -49 14 -57 71 -5 30 -16 74 -25 99 -10 25 -22 61 -28
80 -5 19 -14 39 -19 45 -5 5 -9 18 -9 30 -1 11 -12 38 -25 60 -14 22 -29 50
-34 62 -5 11 -15 24 -20 28 -6 3 -11 12 -11 20 0 21 -43 82 -67 96 -35 19 -39
3 -13 -49 14 -26 23 -57 22 -70 -2 -17 3 -25 17 -29 16 -4 19 -11 15 -28 -4
-14 0 -26 8 -32 16 -9 88 -178 88 -204 0 -9 9 -27 21 -40 14 -17 19 -35 17
-62 -2 -28 2 -41 15 -48 9 -6 17 -17 17 -24 0 -8 4 -15 10 -15 5 0 14 -9 20
-21 9 -16 8 -23 -5 -33 -13 -9 -18 -34 -21 -111 -2 -55 -9 -115 -15 -133 -8
-25 -8 -36 1 -47 18 -21 -4 -45 -41 -45 -15 0 -38 -4 -52 -9 -33 -13 -149 -22
-161 -12 -33 23 -190 39 -202 20 -3 -5 -18 -9 -33 -9 -15 0 -36 -9 -46 -20
-19 -21 -45 -27 -45 -10 0 6 -4 10 -10 10 -5 0 -10 -10 -10 -23 0 -16 -9 -26
-31 -34 -17 -7 -36 -10 -43 -7 -7 3 -28 -2 -48 -10 -27 -12 -44 -13 -72 -5
-60 16 -66 36 -72 220 -7 218 -5 193 -20 376 -7 89 -18 192 -25 229 -6 36 -8
87 -5 114 4 33 3 49 -6 52 -6 2 -8 10 -4 17 6 9 11 9 23 -1 14 -11 15 -10 9
10 -6 17 -1 34 17 60 14 20 28 51 32 69 6 29 65 83 90 83 6 0 21 11 35 25 35
35 100 76 110 70 5 -3 27 13 50 35 40 39 90 55 90 28 0 -14 63 -68 79 -68 18
0 13 10 -20 42 -17 17 -37 42 -46 55 -17 26 -54 31 -73 9 -6 -8 -42 -30 -78
-49 -118 -61 -136 -71 -177 -109 -22 -21 -44 -38 -50 -38 -26 -1 -67 -48 -69
-81 -3 -37 -25 -79 -64 -119 -21 -22 -23 -31 -18 -75 7 -54 18 -216 37 -525 6
-107 9 -273 7 -368 -4 -125 -2 -175 6 -178 7 -3 45 2 85 11 40 8 106 15 148
15 l75 0 38 43 c21 23 59 53 85 66 41 20 57 23 129 19 68 -4 88 -9 121 -32 26
-18 47 -25 60 -21 11 3 70 17 130 30 115 24 160 38 168 52 8 13 -9 233 -24
301 -8 41 -9 66 -3 72 7 7 42 -4 105 -30 148 -64 191 -89 242 -138 39 -39 47
-52 47 -83 0 -30 -7 -43 -45 -78 -60 -55 -219 -130 -365 -172 -42 -13 -190
-48 -245 -59 -113 -23 -109 -23 -137 3 -71 66 -161 54 -210 -27 -31 -52 -27
-51 -263 -66 -88 -6 -192 -15 -231 -21 -40 -6 -78 -9 -85 -7 -11 4 -13 62 -11
314 2 170 -1 368 -7 439 -6 72 -15 207 -20 300 -6 94 -15 195 -22 225 -11 51
-10 55 10 70 74 51 75 54 74 119 -2 61 -2 61 40 91 118 85 169 120 242 165 44
27 94 59 111 70 40 27 206 109 264 131 66 24 183 39 222 28 24 -7 38 -20 52
-47 17 -36 18 -43 3 -110 -17 -84 -29 -117 -73 -212 -55 -118 -56 -123 -37
-156 10 -16 22 -28 28 -26 13 5 88 148 113 217 44 122 55 168 55 231 0 77 -22
122 -80 166 -32 24 -44 27 -108 26 -65 -1 -140 -17 -200 -43 -11 -5 -45 -19
-75 -32 -30 -12 -76 -34 -101 -49 -26 -15 -73 -42 -105 -59 -33 -18 -78 -46
-102 -61 -24 -16 -45 -29 -48 -29 -3 0 -59 -41 -125 -91 l-120 -92 -40 12
c-21 6 -39 13 -40 14 0 1 -9 56 -19 122 -30 199 -61 345 -89 430 -5 17 -24 75
-42 130 -56 175 -130 294 -220 351 -46 29 -91 30 -140 4z m463 -1302 c12 -10
17 -41 22 -138 3 -69 10 -163 15 -210 14 -116 27 -985 15 -992 -5 -4 -158 -8
-341 -10 l-332 -3 -128 135 c-70 74 -157 165 -195 202 -37 37 -68 75 -68 85 0
9 30 49 68 87 225 233 498 501 637 626 88 78 182 163 208 187 50 45 72 52 99
31z m-1052 -1001 c8 -7 31 -31 49 -55 19 -24 88 -97 154 -162 67 -66 118 -123
114 -126 -8 -9 -33 -8 -172 6 -60 6 -167 13 -237 17 -121 6 -127 7 -137 30 -6
13 -11 31 -11 39 0 8 37 57 83 109 45 51 92 107 105 124 26 34 30 36 52 18z
m-110 -396 c36 -5 153 -13 260 -17 107 -3 206 -8 220 -10 14 -1 29 -3 34 -3 5
-1 32 -25 60 -53 86 -88 228 -222 258 -244 16 -12 54 -46 86 -75 31 -30 81
-72 111 -93 51 -38 53 -41 48 -79 -7 -52 8 -96 45 -129 31 -27 31 -27 24 -104
-4 -43 -16 -121 -27 -174 -11 -52 -24 -115 -28 -140 -18 -92 -40 -177 -61
-235 -11 -33 -24 -69 -27 -80 -3 -11 -12 -29 -20 -40 -7 -11 -13 -26 -13 -34
0 -24 -89 -159 -120 -181 -44 -31 -68 -26 -121 29 -33 34 -64 84 -99 158 -27
59 -60 125 -71 147 -29 54 -16 63 59 42 41 -11 98 -16 190 -16 l132 0 6 28 c3
15 10 40 15 56 5 16 9 42 9 58 0 16 5 39 11 50 6 11 15 44 19 72 5 28 16 95
25 149 l17 97 -36 54 c-27 40 -36 65 -36 95 0 30 -6 46 -22 60 -13 10 -44 36
-69 57 -25 22 -68 57 -95 79 -54 44 -126 108 -224 201 l-65 61 -145 11 c-80 7
-181 14 -225 16 -44 3 -94 8 -111 11 -24 5 -37 1 -61 -19 -18 -15 -53 -30 -83
-36 -28 -5 -57 -13 -65 -17 -13 -8 -199 -281 -216 -318 -12 -27 -29 -53 -61
-96 -16 -20 -28 -43 -28 -51 0 -13 124 -137 209 -209 35 -30 40 -49 14 -49
-10 0 -65 -19 -123 -43 -143 -60 -166 -67 -236 -74 -71 -7 -97 4 -120 49 -32
62 11 242 95 398 4 8 20 40 36 70 24 47 101 178 155 265 8 14 40 59 71 102 31
43 63 89 70 103 20 36 30 41 72 34 50 -8 90 9 123 53 20 26 32 33 48 29 11 -3
50 -9 86 -15z m890 -34 c85 0 192 4 236 8 63 5 82 4 86 -7 2 -7 1 -53 -3 -103
-4 -49 -10 -143 -15 -208 -6 -103 -10 -120 -28 -133 -27 -19 -30 -18 -63 14
-15 15 -62 56 -103 92 -41 36 -120 106 -175 155 -55 50 -121 108 -147 129 -59
49 -55 70 11 59 25 -4 116 -7 201 -6z m985 -252 c143 -42 216 -41 313 1 50 22
54 22 72 6 23 -19 26 -38 6 -49 -8 -4 -24 -28 -37 -53 -13 -25 -38 -68 -56
-96 -17 -28 -35 -63 -39 -78 -3 -14 -11 -26 -16 -26 -5 0 -40 -29 -77 -65 -37
-36 -75 -65 -83 -65 -9 0 -21 -6 -27 -14 -14 -17 -63 -6 -91 19 -9 8 -20 15
-25 15 -11 0 -89 52 -93 63 -2 4 -10 7 -19 7 -32 0 -70 41 -111 119 -41 78
-43 84 -36 142 8 69 12 72 117 88 78 12 126 8 202 -14z m-1598 -9 c182 -15
179 -13 350 -173 19 -18 44 -33 54 -33 12 0 19 -7 19 -20 0 -10 12 -27 27 -37
14 -10 45 -36 67 -58 23 -22 48 -40 56 -40 8 0 16 -9 16 -20 1 -11 13 -45 26
-76 21 -45 25 -71 25 -142 0 -97 -24 -206 -44 -200 -7 3 -13 -2 -13 -11 0 -9
5 -16 10 -16 18 0 11 -50 -7 -57 -10 -4 -21 -11 -25 -17 -7 -10 -28 -16 -68
-18 -8 0 -44 2 -79 6 -42 4 -69 2 -78 -5 -14 -12 -88 -5 -108 10 -5 4 -30 13
-55 20 -25 7 -61 19 -80 26 -19 7 -55 19 -80 26 -25 7 -54 19 -65 26 -11 7
-29 13 -40 13 -11 0 -29 6 -40 14 -11 7 -65 37 -120 66 -55 29 -112 62 -127
74 -15 12 -43 32 -64 46 -20 14 -51 40 -69 58 -17 17 -36 32 -42 32 -6 0 -13
9 -16 20 -3 11 -16 24 -30 29 -22 9 -37 29 -37 52 0 4 7 6 17 2 14 -5 15 -1 9
35 -5 34 -3 42 9 42 10 0 15 10 15 29 0 17 8 36 18 43 10 7 39 48 65 90 31 50
53 75 62 72 7 -3 16 3 20 15 12 39 194 108 250 94 11 -2 88 -10 172 -17z m943
-270 c0 -2 -3 -11 -6 -20 -9 -23 -34 -20 -34 4 0 13 7 20 20 20 11 0 20 -2 20
-4z"/>
<path d="M3683 9467 c-34 -34 -118 -116 -188 -182 -246 -233 -445 -436 -445
-452 0 -15 238 -256 268 -272 33 -18 459 -12 474 6 10 13 7 129 -19 846 -3 82
-8 117 -16 116 -7 0 -40 -29 -74 -62z m5 -172 c7 -14 18 -28 26 -31 12 -5 14
-44 10 -252 -6 -293 -9 -331 -32 -338 -9 -3 -26 -10 -37 -14 -37 -15 -109 -19
-184 -9 -48 6 -78 5 -86 -1 -15 -13 -63 9 -70 32 -3 9 -21 30 -40 46 -18 16
-38 39 -44 51 -7 11 -18 21 -26 21 -8 0 -15 6 -15 14 0 8 -3 21 -6 30 -4 11
-1 16 10 16 9 0 16 7 16 15 0 12 72 98 108 129 7 6 25 24 40 39 15 15 40 40
57 55 44 40 74 72 130 135 28 31 55 56 61 57 7 0 14 7 18 15 9 25 51 18 64
-10z"/>
<path d="M3707 8203 c-22 -21 32 -86 68 -81 26 4 32 44 9 69 -17 18 -64 26
-77 12z"/>
<path d="M4020 10445 c0 -8 5 -15 10 -15 6 0 10 7 10 15 0 8 -4 15 -10 15 -5
0 -10 -7 -10 -15z"/>
<path d="M4208 10373 c-10 -2 -18 -9 -18 -14 0 -15 43 -7 48 9 4 12 0 13 -30
5z"/>
<path d="M4048 10296 c-6 -32 4 -48 25 -40 20 7 20 6 5 39 -14 32 -24 32 -30
1z"/>
<path d="M3650 10218 c-1 -2 -2 -42 -4 -91 -2 -55 -8 -94 -17 -105 -22 -27
-39 -61 -39 -77 0 -9 -11 -20 -24 -25 -13 -5 -27 -18 -31 -29 -3 -12 -11 -21
-16 -21 -5 0 -31 -21 -58 -47 -26 -27 -67 -59 -89 -73 -23 -14 -42 -31 -42
-38 0 -7 -20 -21 -44 -32 -24 -10 -47 -27 -50 -38 -4 -11 -17 -27 -29 -35 -12
-8 -45 -36 -73 -63 -28 -27 -70 -68 -95 -91 -24 -23 -52 -50 -61 -60 -97 -100
-165 -163 -174 -163 -15 0 -74 112 -74 142 0 13 -7 32 -15 42 -8 11 -15 27
-15 35 0 26 -34 101 -46 101 -6 0 -16 11 -22 24 -6 13 -23 30 -39 38 -16 7
-29 23 -31 36 -3 18 -10 22 -38 22 -40 0 -89 22 -97 45 -4 8 -16 15 -27 15
-11 0 -20 5 -20 10 0 6 -16 26 -35 46 -19 19 -35 38 -35 42 0 5 -14 26 -30 49
-36 48 -50 127 -25 136 19 8 20 57 2 57 -8 0 -33 -18 -58 -40 -38 -34 -42 -42
-32 -57 7 -10 22 -34 33 -53 26 -44 31 -54 109 -175 36 -55 71 -106 80 -112 8
-7 31 -13 51 -13 113 0 220 -140 220 -288 0 -68 -5 -60 112 -196 l26 -31 77
83 c109 117 374 380 479 476 197 178 255 238 262 269 7 31 19 59 40 87 6 8 14
26 17 40 8 33 -3 160 -14 160 -5 0 -9 -1 -9 -2z"/>
<path d="M7372 9680 c-23 -16 -53 -47 -66 -69 l-25 -39 -1 -418 c-1 -231 -1
-425 -1 -431 1 -10 26 -13 90 -13 62 0 90 4 93 13 2 6 1 80 -2 162 -4 83 -5
155 -3 160 2 6 111 9 306 8 166 -2 308 -3 316 -3 12 0 13 -28 9 -165 -4 -100
-2 -167 4 -171 11 -7 167 -8 174 -1 3 3 5 197 4 432 l-1 427 -30 44 c-16 24
-46 55 -67 69 l-37 25 -361 0 -361 0 -41 -30z m714 -153 c3 -3 6 -70 6 -149
l1 -143 -318 0 -317 0 0 145 c0 80 1 147 1 150 1 7 620 4 627 -3z m-611 -368
c14 -14 -64 -81 -90 -77 -31 5 -31 43 0 74 20 20 32 24 53 19 15 -3 31 -11 37
-16z m693 -7 c11 -31 -1 -72 -21 -72 -7 0 -20 11 -27 25 -9 18 -19 23 -32 19
-26 -8 -23 20 5 39 35 25 64 21 75 -11z"/>
<path d="M8417 9217 c1 -270 2 -497 2 -502 1 -7 37 -11 92 -12 l91 -1 -2 167
c-1 91 -2 171 -1 177 1 7 51 10 159 8 86 -2 160 -3 163 -3 3 -1 27 -31 54 -68
26 -38 53 -72 59 -78 6 -5 42 -52 81 -102 78 -104 74 -102 210 -100 74 2 80 4
83 24 2 15 -11 38 -40 70 -24 27 -61 70 -83 97 -21 27 -59 68 -84 92 -39 37
-44 47 -34 62 6 10 20 16 34 14 76 -9 178 65 197 145 5 21 8 108 7 194 -3 169
-9 191 -64 246 -63 64 -58 63 -513 63 l-413 0 2 -493z m799 309 c6 -3 10 -55
9 -147 l-1 -144 -314 0 -314 0 -1 140 c-1 77 2 145 6 150 7 9 588 10 615 1z
m-656 -326 c10 -6 15 -25 15 -52 0 -35 -4 -45 -24 -56 -28 -15 -58 2 -32 17
12 8 12 14 1 40 -20 49 1 76 40 51z m405 -70 c3 -5 -3 -10 -15 -10 -12 0 -18
5 -15 10 3 6 10 10 15 10 5 0 12 -4 15 -10z m179 -9 c17 -19 17 -21 -16 -50
-38 -36 -69 -36 -118 1 -55 40 -30 67 61 68 43 0 60 -5 73 -19z"/>
<path d="M9540 9705 c-1 -3 -1 -229 -1 -502 l0 -498 92 -3 c51 -1 96 1 100 5
5 5 5 94 0 198 -4 105 -6 196 -3 203 6 16 216 15 235 -2 8 -6 29 -31 47 -56
19 -25 44 -56 56 -70 56 -63 133 -156 172 -208 24 -31 49 -60 56 -64 17 -10
190 -13 205 -4 27 17 -14 88 -109 187 -14 15 -50 57 -80 94 -60 74 -60 75
-137 158 -29 31 -53 59 -53 64 0 4 19 28 41 53 101 111 161 180 215 245 33 39
73 85 89 103 30 34 49 78 39 94 -3 4 -50 8 -104 8 l-98 0 -69 -82 c-37 -45
-79 -97 -93 -114 -191 -241 -168 -224 -298 -224 -96 0 -110 2 -114 18 -2 9 -1
100 3 202 4 102 5 188 2 193 -5 8 -193 10 -193 2z m165 -447 c34 -15 32 -49
-6 -92 -32 -37 -65 -39 -56 -5 3 11 0 32 -6 48 -20 54 10 76 68 49z m336 -50
c22 -28 24 -38 4 -38 -8 0 -15 5 -15 10 0 6 -6 10 -14 10 -18 0 -29 16 -21 30
10 16 25 12 46 -12z"/>
<path d="M10768 9692 c-49 -23 -85 -58 -109 -104 -17 -34 -19 -66 -19 -458 -1
-233 1 -425 4 -427 8 -9 168 -5 177 4 5 5 5 71 1 158 -5 83 -5 156 -2 164 6
11 66 14 319 15 201 1 311 -3 312 -9 3 -23 -2 -243 -6 -275 -3 -19 -1 -41 3
-48 10 -15 170 -24 178 -10 3 5 5 201 5 435 -2 465 0 451 -63 510 -65 61 -77
63 -437 63 -290 -1 -330 -3 -363 -18z m682 -174 c4 -133 2 -289 -3 -294 -5 -5
-334 -7 -619 -4 -5 0 -8 70 -8 155 l0 155 315 0 c245 0 315 -3 315 -12z m-690
-348 c0 -13 7 -20 19 -20 28 0 44 -23 28 -41 -15 -19 -63 -40 -71 -32 -10 10
-7 61 4 68 6 4 8 15 5 26 -4 11 -2 19 4 19 6 0 11 -9 11 -20z m775 4 c12 -13
14 -27 9 -63 -11 -75 -16 -77 -68 -26 -40 39 -39 58 6 89 28 20 33 20 53 0z"/>
<path d="M1910 9633 c0 -16 -17 -61 -76 -201 -8 -18 -14 -44 -14 -57 0 -13 -4
-26 -9 -30 -6 -3 -13 -27 -16 -53 -4 -26 -16 -94 -27 -152 -23 -117 -34 -223
-34 -320 l1 -65 55 -17 c30 -9 91 -24 135 -33 44 -9 100 -21 125 -27 25 -5 72
-14 105 -19 33 -5 75 -12 93 -15 27 -5 38 -2 60 19 15 14 53 32 85 40 47 13
67 25 107 67 28 29 50 59 50 66 0 8 -41 61 -92 119 -91 104 -93 105 -152 117
-52 11 -68 20 -117 68 -46 46 -59 66 -76 123 -15 50 -19 77 -13 99 8 27 3 38
-44 106 -30 43 -65 101 -80 130 -18 36 -32 52 -46 52 -12 0 -20 -7 -20 -17z
m75 -190 c-3 -15 -1 -23 7 -23 18 0 38 -48 38 -91 0 -44 54 -187 79 -209 9 -8
20 -23 23 -32 4 -9 17 -18 30 -20 15 -2 22 -9 21 -21 -1 -15 4 -17 21 -13 13
3 31 -1 42 -9 10 -8 27 -15 37 -15 10 0 21 -10 26 -23 5 -12 25 -31 45 -42 25
-14 36 -26 36 -43 0 -12 7 -33 15 -46 14 -21 13 -24 -7 -42 -24 -21 -74 -43
-144 -64 -33 -10 -58 -9 -138 5 -54 9 -109 20 -123 26 -13 5 -36 9 -51 9 -15
0 -41 9 -58 19 -43 26 -49 53 -54 246 -3 102 29 252 61 294 11 13 19 36 19 52
0 15 6 32 14 36 7 4 19 18 25 31 10 19 15 21 27 11 10 -8 13 -21 9 -36z"/>
<path d="M6444 8466 c-3 -8 1 -27 9 -43 7 -15 28 -75 46 -133 42 -133 43 -134
73 -138 36 -4 37 -2 88 170 14 46 38 57 45 20 10 -48 37 -136 49 -162 8 -17
21 -26 42 -28 l30 -3 38 123 c21 68 42 127 47 133 5 5 9 24 9 42 0 26 -4 33
-19 33 -27 0 -36 -16 -61 -105 -12 -44 -29 -93 -37 -108 -14 -28 -33 -28 -33
0 0 18 -24 102 -48 171 -21 60 -59 56 -76 -8 -4 -14 -11 -34 -15 -45 -5 -11
-16 -46 -26 -78 -10 -32 -23 -56 -28 -54 -9 3 -23 44 -47 146 -6 24 -15 52
-21 62 -11 22 -57 26 -65 5z"/>
<path d="M6979 8468 c-3 -7 -4 -80 -4 -163 l0 -150 30 0 c29 0 30 1 31 50 1
28 2 58 3 68 1 15 12 17 76 17 53 0 75 -4 76 -12 1 -7 2 -38 3 -68 1 -54 1
-55 31 -55 l30 0 1 152 c0 84 -3 158 -6 164 -4 6 -18 9 -31 7 -22 -3 -24 -7
-24 -68 l0 -65 -77 -3 -77 -3 -3 68 c-3 65 -4 68 -29 71 -15 2 -28 -2 -30 -10z"/>
<path d="M7353 8473 c-10 -4 -13 -44 -13 -159 0 -115 3 -156 13 -159 27 -8
215 -12 227 -5 10 6 11 14 3 32 -9 21 -16 23 -94 23 l-84 0 0 40 0 40 75 5
c67 4 75 7 75 25 0 18 -7 20 -75 20 l-75 0 0 40 0 40 70 2 c39 0 78 2 88 2 12
1 17 9 17 32 l0 30 -107 -2 c-60 -1 -114 -4 -120 -6z"/>
<path d="M7667 8468 c-15 -11 -16 -32 -14 -163 l2 -150 28 -3 c26 -3 27 -2 27
42 l0 46 49 0 c49 0 50 -1 72 -44 21 -43 47 -60 75 -49 21 8 17 20 -18 64
l-32 40 26 24 c46 43 49 123 5 162 -12 11 -37 25 -56 32 -45 15 -143 14 -164
-1z m173 -68 c38 -38 20 -95 -34 -106 -19 -3 -48 -3 -65 1 -30 6 -31 8 -31 60
0 59 4 63 68 64 29 1 48 -5 62 -19z"/>
<path d="M8002 8468 c-8 -8 -12 -59 -12 -164 l0 -151 61 -7 c78 -8 153 -8 173
0 23 9 20 43 -4 52 -11 4 -48 5 -82 2 -48 -5 -65 -3 -82 11 -17 14 -19 21 -10
45 9 28 13 29 64 26 73 -3 100 4 100 28 0 25 -29 33 -95 25 -51 -7 -55 -6 -66
18 -8 18 -8 30 1 47 11 21 17 22 82 17 78 -7 98 -2 98 22 0 34 -22 41 -120 41
-61 0 -100 -4 -108 -12z"/>
<path d="M8525 8473 c-50 -2 -92 -9 -96 -15 -4 -6 -7 -75 -7 -154 0 -106 3
-146 13 -154 8 -7 53 -10 121 -8 109 3 109 3 109 28 0 25 -1 25 -83 25 -92 0
-110 11 -97 62 6 24 8 25 71 21 56 -2 68 0 80 16 21 30 3 39 -78 40 -73 1 -73
1 -76 30 -5 43 11 51 96 51 l77 0 0 30 c0 34 6 33 -130 28z"/>
<path d="M8738 8453 c-2 -10 -4 -83 -3 -163 0 -139 1 -145 21 -148 37 -5 44
17 35 104 -11 96 -5 114 30 82 13 -13 38 -41 54 -62 17 -21 35 -44 40 -50 6
-6 21 -26 34 -44 16 -23 30 -32 45 -30 20 3 21 7 21 163 0 155 -1 160 -21 163
-35 5 -42 -16 -34 -103 7 -80 4 -105 -10 -105 -4 0 -44 47 -90 105 -80 103
-114 127 -122 88z"/>
<path d="M9114 8455 c-1 -5 -4 -74 -7 -153 -2 -104 0 -145 9 -153 7 -5 58 -8
120 -7 101 3 109 4 109 23 0 18 -8 20 -87 23 -83 3 -86 4 -92 28 -4 14 -4 35
-1 46 6 17 14 19 78 16 72 -3 72 -3 75 25 l3 27 -76 0 c-82 0 -93 7 -81 55 6
24 9 25 92 25 68 0 86 3 91 16 11 31 -15 39 -124 39 -62 0 -107 -4 -109 -10z"/>
<path d="M9851 8460 c-133 -32 -166 -221 -52 -295 49 -32 93 -39 151 -25 60
14 66 21 73 86 7 62 -8 90 -41 80 -18 -6 -22 -15 -22 -46 0 -62 -7 -70 -59
-70 -37 0 -53 6 -78 29 -39 36 -49 69 -33 116 8 25 23 41 50 55 48 24 69 25
114 4 38 -19 69 -13 64 12 -8 42 -98 71 -167 54z"/>
<path d="M10070 8455 c-13 -16 -16 -11 58 -123 49 -76 54 -88 50 -127 -6 -49
5 -75 32 -75 27 0 34 17 35 80 0 56 21 97 92 183 27 33 30 62 7 71 -27 10 -48
-10 -82 -78 -18 -36 -39 -66 -47 -66 -8 0 -27 23 -43 52 -28 54 -65 98 -80 98
-5 0 -15 -7 -22 -15z"/>
<path d="M9414 8447 c-2 -7 -3 -78 -2 -157 l3 -145 25 0 c22 0 26 5 30 45 5
44 6 45 42 48 35 3 40 0 74 -48 30 -41 41 -51 62 -48 36 4 37 20 2 54 -16 16
-30 32 -30 37 0 4 14 26 30 49 33 46 37 75 15 118 -26 51 -50 60 -153 60 -67
0 -94 -4 -98 -13z m176 -52 c23 -12 30 -23 30 -45 0 -49 -42 -75 -111 -68 -33
3 -34 4 -37 52 -2 27 -1 55 2 62 7 19 79 18 116 -1z"/>
<path d="M10539 8458 c-1 -2 -3 -71 -5 -155 -3 -159 3 -184 42 -169 14 5 16
20 13 98 -3 62 0 92 7 95 7 2 29 -30 50 -71 57 -110 70 -108 130 16 19 39 32
54 42 51 12 -5 13 -22 7 -95 -6 -78 -5 -89 11 -95 9 -3 23 -2 32 3 12 8 15 37
14 163 0 84 -3 155 -6 158 -9 9 -56 -7 -56 -18 0 -6 -14 -31 -30 -56 -17 -24
-40 -63 -51 -84 -11 -22 -25 -39 -32 -36 -11 3 -97 142 -97 156 0 20 -63 54
-71 39z"/>
<path d="M10982 8452 c-9 -7 -12 -46 -10 -162 l3 -154 114 0 c97 -1 115 2 124
16 18 27 1 33 -91 33 l-87 0 -3 43 -3 42 75 0 c78 0 92 7 81 41 -6 19 -13 20
-78 17 l-72 -3 -3 38 c-2 25 1 37 10 38 7 0 47 2 88 2 64 2 75 5 78 21 2 10
-2 22 -10 27 -17 11 -199 11 -216 1z"/>
<path d="M11243 8444 c-10 -28 6 -44 44 -44 64 0 66 -4 62 -135 -3 -101 -2
-119 13 -128 12 -8 21 -7 33 3 15 13 17 28 11 126 -8 125 -6 130 59 136 35 3
40 6 40 28 l0 24 -128 2 c-101 1 -130 -1 -134 -12z"/>
<path d="M11603 8452 c-31 -10 -63 -56 -63 -90 0 -40 60 -92 107 -92 19 0 43
-9 59 -23 l27 -24 -23 -23 c-19 -19 -29 -21 -66 -16 -24 3 -52 11 -62 17 -25
16 -52 5 -52 -19 0 -27 16 -37 86 -52 57 -11 64 -11 110 12 41 19 50 29 58 60
7 29 6 42 -8 63 -19 29 -34 37 -119 60 -54 15 -58 18 -55 42 4 34 48 48 99 32
60 -19 95 1 70 40 -10 15 -132 25 -168 13z"/>
<path d="M12073 8448 c-6 -7 -36 -70 -68 -140 -32 -71 -62 -128 -67 -128 -14
0 -9 -48 7 -54 24 -9 39 1 60 42 l20 37 78 3 78 3 14 -35 c20 -47 50 -64 65
-35 9 16 8 26 -4 43 -8 13 -26 51 -40 84 -24 56 -77 175 -80 179 -8 11 -55 12
-63 1z m60 -122 c26 -56 20 -71 -31 -73 -29 -1 -45 3 -49 12 -7 19 36 107 51
102 6 -2 19 -20 29 -41z"/>
<path d="M12317 8453 c-8 -14 -6 -299 2 -312 5 -7 19 -11 32 -9 24 3 24 3 27
157 3 160 0 170 -40 171 -9 0 -19 -3 -21 -7z"/>
<path d="M1815 8324 c4 -22 13 -50 20 -64 24 -47 45 -101 45 -114 0 -8 7 -19
15 -26 8 -7 15 -22 16 -34 1 -25 30 -79 43 -78 5 0 27 33 49 74 22 40 59 99
83 131 41 53 54 85 37 88 -5 1 -21 3 -38 5 -16 2 -70 12 -120 24 -49 12 -105
24 -124 27 l-34 6 8 -39z"/>
<path d="M4047 7433 c-4 -3 -7 -37 -7 -74 0 -45 -7 -86 -20 -119 -21 -54 -26
-100 -10 -100 5 0 45 16 87 37 43 20 107 47 143 59 83 29 85 47 10 87 -30 16
-81 49 -113 73 -55 43 -76 51 -90 37z"/>
</g>
</svg>
